<svg xmlns="http://www.w3.org/2000/svg" viewBox="0 0 64 64" id="rocket">
  <g>
    <path fill="#767689" d="M38.52 49.3V51l10.27 6.93V43.25a2.87 2.87 0 0 0-2.22-2.8l-5.14-1.2H22.49l-5.06 1.18a2.87 2.87 0 0 0-2.22 2.8v14.71L25.48 51v-1.7Z"></path>
    <path fill="#6cc5ef" d="M33.72 49.3h6.53l2.22-18.81A39.7 39.7 0 0 0 32 4a39.7 39.7 0 0 0-10.55 26.49l2.22 18.81h10Z"></path>
    <circle cx="31.96" cy="26.65" r="4.74" fill="#f9f9f9"></circle>
    <path fill="#f9f9f9" d="M33.72 52.73h4.8V49.3h-13v3.43h8.24Z"></path>
    <path fill="#767689" d="M32 39.61a1.71 1.71 0 0 1 1.72 1.72v17a1.72 1.72 0 0 1-3.44 0v-17A1.71 1.71 0 0 1 32 39.61Z"></path>
    <path fill="#3db3ea" d="M32 4c-.69.78-1.35 1.57-2 2.38a39.24 39.24 0 0 1 8.54 24.11L36.29 49.3h4l2.22-18.81A39.7 39.7 0 0 0 32 4Z"></path>
    <path fill="#f9f9f9" d="M32 4a43.07 43.07 0 0 0-5.89 8.4l.12.09a22.86 22.86 0 0 0 5.77.72 22.59 22.59 0 0 0 5.91-.76A42.77 42.77 0 0 0 32 4Z"></path>
    <path fill="#e6e5e1" d="M32 4c-.7.78-1.35 1.58-2 2.39a43.18 43.18 0 0 1 4.28 6.71 21.47 21.47 0 0 0 3.6-.65A42.77 42.77 0 0 0 32 4Z"></path>
    <path fill="#16244d" d="M32 32.39a5.74 5.74 0 1 0-5.75-5.74A5.74 5.74 0 0 0 32 32.39Zm0-9.48a3.74 3.74 0 1 1-3.75 3.74A3.74 3.74 0 0 1 32 22.91Z"></path>
    <path fill="#16244d" d="M14.21 43.25v14.69a1 1 0 0 0 .53.88 1 1 0 0 0 .47.12 1 1 0 0 0 .56-.17l8.74-5.9a1 1 0 0 0 1 .86h3.8v4.55a2.72 2.72 0 0 0 5.44 0v-4.55h3.8a1 1 0 0 0 1-.86l8.74 5.9a1 1 0 0 0 .56.17 1 1 0 0 0 .47-.12 1 1 0 0 0 .53-.88V43.25a3.86 3.86 0 0 0-3-3.78l-4.27-1c1-8.11.94-7.89.94-8A41 41 0 0 0 32.7 3.33a1 1 0 0 0-1.49 0 41 41 0 0 0-10.76 27.16c0 .1 0-.07.94 8l-4.19 1a3.86 3.86 0 0 0-2.99 3.76Zm12.27 8.48V50.3h2.8v1.43ZM32 59a.72.72 0 0 1-.72-.72v-17a.72.72 0 0 1 1.44 0v16.97A.72.72 0 0 1 32 59Zm5.52-7.27h-2.8V50.3h2.8Zm8.82-10.31a1.86 1.86 0 0 1 1.45 1.83v12.81l-8.27-5.58v-.18h.73a1 1 0 0 0 1-.88l1.06-9ZM32 5.52a42.57 42.57 0 0 1 4.39 6.26 23.15 23.15 0 0 1-8.78 0A41.82 41.82 0 0 1 32 5.52Zm-5.37 8.09a24.28 24.28 0 0 0 5.37.6 24.28 24.28 0 0 0 5.37-.6 37.32 37.32 0 0 1 4.14 16.82L39.36 48.3h-4.64v-7a2.72 2.72 0 0 0-5.44 0v7h-4.72l-2.11-17.87a37.32 37.32 0 0 1 4.14-16.82Zm-5 26.88 1.06 8.93a1 1 0 0 0 1 .88h.81v.18l-8.27 5.58V43.25a1.86 1.86 0 0 1 1.45-1.83Z"></path>
  </g>
</svg>
